<?xml version="1.0" encoding="utf-8"?>
<!-- Generator: Adobe Illustrator 22.0.1, SVG Export Plug-In . SVG Version: 6.00 Build 0)  -->
<svg version="1.1" id="Слой_1" xmlns="http://www.w3.org/2000/svg" xmlns:xlink="http://www.w3.org/1999/xlink" x="0px" y="0px"
	 viewBox="0 0 54 82.3" style="enable-background:new 0 0 54 82.3;" xml:space="preserve">
<style type="text/css">
	.st0{fill:url(#SVGID_1_);}
	.st1{fill:none;stroke:url(#SVGID_2_);}
	.st2{fill:url(#SVGID_3_);}
	.st3{fill:none;stroke:url(#SVGID_4_);}
	.st4{fill:url(#SVGID_5_);}
	.st5{fill:none;stroke:url(#SVGID_6_);}
	.st6{fill:url(#SVGID_7_);}
	.st7{fill:none;stroke:url(#SVGID_8_);}
	.st8{fill:url(#SVGID_9_);}
	.st9{fill:none;stroke:url(#SVGID_10_);}
</style>
<g>
	
		<linearGradient id="SVGID_1_" gradientUnits="userSpaceOnUse" x1="-1.9724" y1="47.825" x2="40.3591" y2="63.81" gradientTransform="matrix(1 0 0 -1 0 122)">
		<stop  offset="0" style="stop-color:#58E967"/>
		<stop  offset="1" style="stop-color:#0EB75C"/>
	</linearGradient>
	<path class="st0" d="M13.5,82C20.9,82,27,75.9,27,68.3V54.7H13.5C6,54.7,0,60.8,0,68.3C0,75.9,6,82,13.5,82z"/>
	
		<linearGradient id="SVGID_2_" gradientUnits="userSpaceOnUse" x1="-1.5029" y1="52.9152" x2="26.6651" y2="54.3262" gradientTransform="matrix(1 0 0 -1 0 122)">
		<stop  offset="0" style="stop-color:#FFFFFF"/>
		<stop  offset="1" style="stop-color:#07BB4A"/>
	</linearGradient>
	<path class="st1" d="M26.5,68.3c0,7.3-5.8,13.2-13,13.2s-13-5.9-13-13.2c0-7.3,5.8-13.2,13-13.2h13V68.3z"/>
</g>
<g>
	
		<linearGradient id="SVGID_3_" gradientUnits="userSpaceOnUse" x1="-1.2806" y1="100.6651" x2="41.0508" y2="116.65" gradientTransform="matrix(1 0 0 -1 0 122)">
		<stop  offset="0" style="stop-color:#EE4545"/>
		<stop  offset="1" style="stop-color:#D21616"/>
	</linearGradient>
	<path class="st2" d="M0,13.7C0,6.1,6,0,13.5,0H27v27.3H13.5C6,27.3,0,21.2,0,13.7z"/>
	
		<linearGradient id="SVGID_4_" gradientUnits="userSpaceOnUse" x1="-1.4845" y1="107.2533" x2="26.6836" y2="108.6642" gradientTransform="matrix(1 0 0 -1 0 122)">
		<stop  offset="0" style="stop-color:#FFFFFF"/>
		<stop  offset="1" style="stop-color:#DD1D1D"/>
	</linearGradient>
	<path class="st3" d="M0.5,13.7c0-7.3,5.8-13.2,13-13.2h13v26.3h-13C6.3,26.8,0.5,20.9,0.5,13.7z"/>
</g>
<g>
	
		<linearGradient id="SVGID_5_" gradientUnits="userSpaceOnUse" x1="24.332" y1="104.3184" x2="66.6634" y2="120.3034" gradientTransform="matrix(1 0 0 -1 0 122)">
		<stop  offset="0" style="stop-color:#FA8787"/>
		<stop  offset="1" style="stop-color:#E35050"/>
	</linearGradient>
	<path class="st4" d="M27,0h13.5C47.9,0,54,6.1,54,13.7s-6,13.7-13.5,13.7H27V0z"/>
	
		<linearGradient id="SVGID_6_" gradientUnits="userSpaceOnUse" x1="-18.7402" y1="116.9823" x2="54.4183" y2="105.0499" gradientTransform="matrix(1 0 0 -1 0 122)">
		<stop  offset="0" style="stop-color:#FFFFFF"/>
		<stop  offset="1" style="stop-color:#EE4E4E"/>
	</linearGradient>
	<path class="st5" d="M27.5,0.5h13c7.2,0,13,5.9,13,13.2c0,7.3-5.8,13.2-13,13.2h-13V0.5z"/>
</g>
<g>
	
		<linearGradient id="SVGID_7_" gradientUnits="userSpaceOnUse" x1="25.0218" y1="75.1583" x2="67.3532" y2="91.1432" gradientTransform="matrix(1 0 0 -1 0 122)">
		<stop  offset="0" style="stop-color:#75D9F8"/>
		<stop  offset="1" style="stop-color:#0AB1E6"/>
	</linearGradient>
	<path class="st6" d="M54,41c0,7.5-6,13.7-13.5,13.7S27,48.5,27,41s6-13.7,13.5-13.7S54,33.5,54,41z"/>
	
		<linearGradient id="SVGID_8_" gradientUnits="userSpaceOnUse" x1="25.4912" y1="80.2485" x2="53.6593" y2="81.6594" gradientTransform="matrix(1 0 0 -1 0 122)">
		<stop  offset="0" style="stop-color:#FFFFFF"/>
		<stop  offset="1" style="stop-color:#0AAACD"/>
	</linearGradient>
	<path class="st7" d="M53.5,41c0,7.3-5.8,13.2-13,13.2s-13-5.9-13-13.2c0-7.3,5.8-13.2,13-13.2S53.5,33.7,53.5,41z"/>
</g>
<g>
	
		<linearGradient id="SVGID_9_" gradientUnits="userSpaceOnUse" x1="-1.2826" y1="73.3316" x2="41.0489" y2="89.3165" gradientTransform="matrix(1 0 0 -1 0 122)">
		<stop  offset="0" style="stop-color:#AF75F8"/>
		<stop  offset="1" style="stop-color:#500AE6"/>
	</linearGradient>
	<path class="st8" d="M0,41c0-7.5,6-13.7,13.5-13.7H27v27.3H13.5C6,54.7,0,48.5,0,41z"/>
	
		<linearGradient id="SVGID_10_" gradientUnits="userSpaceOnUse" x1="-1.4864" y1="79.9198" x2="26.6816" y2="81.3307" gradientTransform="matrix(1 0 0 -1 0 122)">
		<stop  offset="0" style="stop-color:#FFFFFF"/>
		<stop  offset="1" style="stop-color:#770ACD"/>
	</linearGradient>
	<path class="st9" d="M0.5,41c0-7.3,5.8-13.2,13-13.2h13v26.3h-13C6.3,54.2,0.5,48.3,0.5,41z"/>
</g>
</svg>
