<?xml version="1.0" encoding="utf-8"?>
<!-- Generator: Adobe Illustrator 22.0.1, SVG Export Plug-In . SVG Version: 6.00 Build 0)  -->
<svg version="1.1" id="Слой_1" xmlns="http://www.w3.org/2000/svg" xmlns:xlink="http://www.w3.org/1999/xlink" x="0px" y="0px"
	 viewBox="0 0 44.1 43.4" style="enable-background:new 0 0 44.1 43.4;" xml:space="preserve">
<style type="text/css">
	.st0{fill:url(#SVGID_1_);}
	.st1{fill:none;stroke:url(#SVGID_2_);}
</style>
<g>
	
		<linearGradient id="SVGID_1_" gradientUnits="userSpaceOnUse" x1="59.1587" y1="-9.5354" x2="3.0638" y2="35.4924" gradientTransform="matrix(1 0 0 -1 0 46.625)">
		<stop  offset="0.2451" style="stop-color:#DEE9F3"/>
		<stop  offset="1" style="stop-color:#5F83AD"/>
	</linearGradient>
	<path class="st0" d="M14.5,41.8h13.8c3.3,0,4.9,0,5.9-1c1-1,1-2.6,1-5.9V20.7c3.6,0,5.4,0,5.8-1c0-0.1,0.1-0.1,0.1-0.2
		c0.3-1.1-1-2.3-3.6-4.7L26,4.5c-2.2-2-3.3-3-4.6-3c-1.3,0-2.4,1-4.6,3L5.3,14.9c-2.6,2.3-3.9,3.5-3.6,4.5c0,0.1,0.1,0.2,0.1,0.3
		c0.5,1,2.2,1,5.7,1v14.2c0,3.3,0,4.9,1,5.9C9.6,41.8,11.2,41.8,14.5,41.8z"/>
	
		<linearGradient id="SVGID_2_" gradientUnits="userSpaceOnUse" x1="1.7748" y1="35.223" x2="41.5864" y2="6.8452" gradientTransform="matrix(1 0 0 -1 0 46.625)">
		<stop  offset="0.131" style="stop-color:#FFFFFF"/>
		<stop  offset="1" style="stop-color:#5B80A3"/>
	</linearGradient>
	<path class="st1" d="M28.2,42.6H14.5h-0.1c-1.6,0-2.8,0-3.8-0.1c-1-0.1-1.9-0.4-2.6-1.1c-0.7-0.7-1-1.6-1.1-2.6
		c-0.1-1-0.1-2.3-0.1-3.8v-0.1V21.5c-1.3,0-2.4,0-3.2-0.1c-1-0.1-1.9-0.4-2.4-1.3C1,19.9,1,19.8,0.9,19.7c-0.3-1,0.3-1.9,0.9-2.6
		c0.6-0.8,1.6-1.7,2.9-2.8l0.1,0L16.2,3.9l0,0c1.1-1,1.9-1.7,2.7-2.3c0.8-0.6,1.6-0.9,2.5-0.9c0.9,0,1.7,0.3,2.5,0.9
		c0.8,0.5,1.6,1.3,2.7,2.3l0,0L38,14.2l0.1,0c1.3,1.2,2.3,2.1,3,2.9c0.6,0.7,1.2,1.6,0.9,2.6l0,0l-0.8-0.3c0,0.1,0,0.1-0.1,0.2
		c-0.5,1-2.2,1-5.8,1L28.2,42.6z M28.2,42.6L28.2,42.6c1.6,0,2.9,0,3.9-0.1c1-0.1,1.9-0.4,2.6-1.1c0.7-0.7,1-1.6,1.1-2.6
		c0.1-1,0.1-2.3,0.1-3.8v-0.1V21.5L28.2,42.6z"/>
</g>
</svg>
