<?xml version="1.0" encoding="utf-8"?>
<!-- Generator: Adobe Illustrator 22.0.1, SVG Export Plug-In . SVG Version: 6.00 Build 0)  -->
<svg version="1.1" id="Слой_1" xmlns="http://www.w3.org/2000/svg" xmlns:xlink="http://www.w3.org/1999/xlink" x="0px" y="0px"
	 viewBox="0 0 25.4 26.2" style="enable-background:new 0 0 25.4 26.2;" xml:space="preserve">
<style type="text/css">
	.st0{fill:url(#SVGID_1_);}
	.st1{fill:none;stroke:url(#SVGID_2_);}
</style>
<g>
	
		<linearGradient id="SVGID_1_" gradientUnits="userSpaceOnUse" x1="35.03" y1="8.4111" x2="2.082" y2="34.8586" gradientTransform="matrix(1 0 0 -1 0 42)">
		<stop  offset="0.2451" style="stop-color:#545C65"/>
		<stop  offset="1" style="stop-color:#1B2129"/>
	</linearGradient>
	<path class="st0" d="M8.8,25.1h8.1c1.9,0,2.9,0,3.5-0.6s0.6-1.6,0.6-3.5v-8.3c2.1,0,3.1,0,3.4-0.6c0,0,0-0.1,0-0.1
		c0.2-0.6-0.6-1.3-2.1-2.7l-6.7-6.1c-1.3-1.2-1.9-1.8-2.7-1.8c-0.8,0-1.4,0.6-2.7,1.8L3.4,9.3c-1.5,1.4-2.3,2.1-2.1,2.7
		c0,0.1,0,0.1,0.1,0.2c0.3,0.6,1.3,0.6,3.3,0.6v8.3c0,1.9,0,2.9,0.6,3.5S6.9,25.1,8.8,25.1z"/>
	
		<linearGradient id="SVGID_2_" gradientUnits="userSpaceOnUse" x1="1.1345" y1="34.8361" x2="24.9094" y2="17.8894" gradientTransform="matrix(1 0 0 -1 0 42)">
		<stop  offset="0.131" style="stop-color:#889199"/>
		<stop  offset="1" style="stop-color:#33393D"/>
	</linearGradient>
	<path class="st1" d="M16.9,25.6H8.8h0c-0.9,0-1.7,0-2.3-0.1c-0.6-0.1-1.1-0.3-1.5-0.7c-0.4-0.4-0.6-0.9-0.7-1.5
		c-0.1-0.6-0.1-1.3-0.1-2.3v0v-7.8c-0.8,0-1.4,0-1.9-0.1c-0.6-0.1-1.1-0.2-1.4-0.8c0-0.1-0.1-0.2-0.1-0.2c-0.2-0.6,0.1-1.1,0.5-1.5
		c0.4-0.4,1-1,1.7-1.6l0,0l6.7-6.1l0,0c0.6-0.6,1.1-1,1.6-1.3C11.8,1.2,12.3,1,12.8,1c0.5,0,1,0.2,1.5,0.5c0.4,0.3,1,0.8,1.6,1.3
		l0,0l6.7,6.1l0,0c0.8,0.7,1.4,1.2,1.7,1.7c0.4,0.4,0.7,1,0.5,1.6l0,0L24.4,12c0,0,0,0.1,0,0.1c-0.3,0.6-1.3,0.6-3.4,0.6L16.9,25.6z
		 M16.9,25.6L16.9,25.6c1,0,1.7,0,2.3-0.1c0.6-0.1,1.1-0.3,1.5-0.7c0.4-0.4,0.6-0.9,0.7-1.5c0.1-0.6,0.1-1.3,0.1-2.3v0v-7.8
		L16.9,25.6z"/>
</g>
</svg>
